<svg xmlns="http://www.w3.org/2000/svg" width="192" height="192" viewBox="0 0 192 192">
  <defs>
    <filter id="lockShadow" x="-20%" y="-20%" width="140%" height="140%">
      <feDropShadow dx="0" dy="2" stdDeviation="4" flood-color="#000" flood-opacity="0.5"/>
    </filter>
  </defs>
  <rect width="192" height="192" rx="29" fill="#C44A3A"/>
  <!-- Utensils crossed (Lucide, ISC license) -->
  <g transform="translate(36, 28) scale(5)" fill="none" stroke="#F2D479" stroke-width="2" stroke-linecap="round" stroke-linejoin="round" opacity="0.7">
    <path d="m16 2-2.3 2.3a3 3 0 0 0 0 4.2l1.8 1.8a3 3 0 0 0 4.2 0L22 8"/>
    <path d="M15 15 3.3 3.3a4.2 4.2 0 0 0 0 6l7.3 7.3c.7.7 2 .7 2.8 0L15 15Zm0 0 7 7"/>
    <path d="m2.1 21.8 6.4-6.3"/>
    <path d="m19 5-7 7"/>
  </g>
  <!-- Lock with drop shadow -->
  <g filter="url(#lockShadow)">
    <!-- Lock shackle -->
    <path d="M78 93 v-20 a18 18 0 0 1 36 0 v20" fill="none" stroke="#6FAF4F" stroke-width="9" stroke-linecap="round"/>
    <!-- Lock body -->
    <rect x="66" y="93" width="60" height="49" rx="7" fill="#6FAF4F"/>
    <!-- Keyhole -->
    <circle cx="96" cy="114" r="6" fill="#0d1117"/>
    <rect x="93.5" y="117" width="5" height="9" rx="2" fill="#0d1117"/>
  </g>
</svg>
